<?xml version="1.0" encoding="utf-8"?>
<!-- Generator: Adobe Illustrator 21.1.0, SVG Export Plug-In . SVG Version: 6.00 Build 0)  -->
<svg version="1.1" xmlns="http://www.w3.org/2000/svg" xmlns:xlink="http://www.w3.org/1999/xlink" x="0px" y="0px"
	 viewBox="0 0 100.8 24" style="enable-background:new 0 0 100.8 24;" xml:space="preserve">
<style type="text/css">
	.st0{display:none;}
	.st1{display:inline;}
	.st2{clip-path:url(#SVGID_2_);}
	.st3{font-family:'ProximaNova-Bold';}
	.st4{font-size:31.7234px;}
	.st5{font-family:'ProximaNova-Regular';}
</style>
<g id="Capa_1">
	<g>
		<path d="M12,4.8c4,0,7.2,3.2,7.2,7.2S16,19.2,12,19.2S4.8,16,4.8,12S8,4.8,12,4.8z M12,24c6.6,0,12-5.4,12-12S18.6,0,12,0
			S0,5.4,0,12S5.4,24,12,24z"/>
		<path d="M43.2,7.2H96v9.6H43.2V7.2z M40.8,21.6h57.6c1.3,0,2.4-1.1,2.4-2.4V4.8c0-1.3-1.1-2.4-2.4-2.4H40.8
			c-1.3,0-2.4,1.1-2.4,2.4v14.4C38.4,20.5,39.5,21.6,40.8,21.6z"/>
	</g>
</g>
<g id="Capa_2" class="st0">
	<g class="st1">
		<defs>
			<rect id="SVGID_1_" x="-201" y="175.7" width="24" height="24"/>
		</defs>
		<clipPath id="SVGID_2_">
			<use xlink:href="#SVGID_1_"  style="overflow:visible;"/>
		</clipPath>
		<path class="st2" d="M-197,177.7h16v20h-16V177.7z M-199,176.7v22c0,0.6,0.4,1,1,1h18c0.6,0,1-0.4,1-1v-22c0-0.6-0.4-1-1-1h-18
			C-198.6,175.7-199,176.1-199,176.7z"/>
		<path class="st2" d="M-184,188.7h-5c-0.6,0-1,0.4-1,1c0,0.6,0.4,1,1,1h5c0.6,0,1-0.4,1-1C-183,189.1-183.4,188.7-184,188.7z"/>
		<path class="st2" d="M-193,188.7h-1c-0.6,0-1,0.4-1,1c0,0.6,0.4,1,1,1h1c0.6,0,1-0.4,1-1C-192,189.1-192.4,188.7-193,188.7z"/>
		<path class="st2" d="M-187,192.7h-2c-0.6,0-1,0.4-1,1c0,0.6,0.4,1,1,1h2c0.6,0,1-0.4,1-1C-186,193.1-186.4,192.7-187,192.7z"/>
		<path class="st2" d="M-193,192.7h-1c-0.6,0-1,0.4-1,1c0,0.6,0.4,1,1,1h1c0.6,0,1-0.4,1-1C-192,193.1-192.4,192.7-193,192.7z"/>
		<path class="st2" d="M-189,186.7h3c0.6,0,1-0.4,1-1c0-0.6-0.4-1-1-1h-3c-0.6,0-1,0.4-1,1C-190,186.3-189.6,186.7-189,186.7z"/>
		<path class="st2" d="M-193,184.7h-1c-0.6,0-1,0.4-1,1c0,0.6,0.4,1,1,1h1c0.6,0,1-0.4,1-1C-192,185.1-192.4,184.7-193,184.7z"/>
		<path class="st2" d="M-184,180.7h-5c-0.6,0-1,0.4-1,1c0,0.6,0.4,1,1,1h5c0.6,0,1-0.4,1-1C-183,181.1-183.4,180.7-184,180.7z"/>
		<path class="st2" d="M-193,180.7h-1c-0.6,0-1,0.4-1,1c0,0.6,0.4,1,1,1h1c0.6,0,1-0.4,1-1C-192,181.1-192.4,180.7-193,180.7z"/>
	</g>
	<g class="st1">
		<path d="M-200.3,99.9c1,0,1.8,0.8,1.8,1.8c0,1-0.8,1.8-1.8,1.8c-1,0-1.8-0.8-1.8-1.8C-202.1,100.7-201.3,99.9-200.3,99.9z
			 M-200.3,104.6c1.6,0,2.9-1.3,2.9-2.9c0-1.6-1.3-2.9-2.9-2.9c-1.6,0-2.9,1.3-2.9,2.9C-203.2,103.3-201.9,104.6-200.3,104.6z"/>
		<path d="M-200.3,109.2c1,0,1.8,0.8,1.8,1.8s-0.8,1.8-1.8,1.8c-1,0-1.8-0.8-1.8-1.8S-201.3,109.2-200.3,109.2z M-200.3,113.9
			c1.6,0,2.9-1.3,2.9-2.9s-1.3-2.9-2.9-2.9c-1.6,0-2.9,1.3-2.9,2.9S-201.9,113.9-200.3,113.9z"/>
		<path d="M-200.3,118.6c1,0,1.8,0.8,1.8,1.8c0,1-0.8,1.8-1.8,1.8c-1,0-1.8-0.8-1.8-1.8C-202.1,119.4-201.3,118.6-200.3,118.6z
			 M-200.3,123.2c1.6,0,2.9-1.3,2.9-2.9c0-1.6-1.3-2.9-2.9-2.9c-1.6,0-2.9,1.3-2.9,2.9C-203.2,121.9-201.9,123.2-200.3,123.2z"/>
		<path d="M-192.8,100.5h12.8v2.3h-12.8V100.5z M-193.3,104h14c0.3,0,0.6-0.3,0.6-0.6v-3.5c0-0.3-0.3-0.6-0.6-0.6h-14
			c-0.3,0-0.6,0.3-0.6,0.6v3.5C-193.9,103.7-193.7,104-193.3,104z"/>
		<path d="M-192.8,109.8h12.8v2.3h-12.8V109.8z M-193.9,112.8c0,0.3,0.3,0.6,0.6,0.6h14c0.3,0,0.6-0.3,0.6-0.6v-3.5
			c0-0.3-0.3-0.6-0.6-0.6h-14c-0.3,0-0.6,0.3-0.6,0.6V112.8z"/>
		<path d="M-192.8,119.2h12.8v2.3h-12.8V119.2z M-193.9,122.1c0,0.3,0.3,0.6,0.6,0.6h14c0.3,0,0.6-0.3,0.6-0.6v-3.5
			c0-0.3-0.3-0.6-0.6-0.6h-14c-0.3,0-0.6,0.3-0.6,0.6V122.1z"/>
	</g>
	<g class="st1">
		<path d="M-194,20.3h17c0.6,0,1-0.4,1-1s-0.4-1-1-1h-17c-0.6,0-1,0.4-1,1S-194.6,20.3-194,20.3z"/>
		<path d="M-194,31.3h17c0.6,0,1-0.4,1-1s-0.4-1-1-1h-17c-0.6,0-1,0.4-1,1S-194.6,31.3-194,31.3z"/>
		<path d="M-194,42.3h17c0.6,0,1-0.4,1-1c0-0.6-0.4-1-1-1h-17c-0.6,0-1,0.4-1,1C-195,41.9-194.6,42.3-194,42.3z"/>
		<path d="M-204,17.3h4v4h-4V17.3z M-205,23.3h6c0.6,0,1-0.4,1-1v-6c0-0.6-0.4-1-1-1h-6c-0.6,0-1,0.4-1,1v6
			C-206,22.9-205.6,23.3-205,23.3z"/>
		<path d="M-204,28.3h4v4h-4V28.3z M-206,33.3c0,0.6,0.4,1,1,1h6c0.6,0,1-0.4,1-1v-6c0-0.6-0.4-1-1-1h-6c-0.6,0-1,0.4-1,1V33.3z"/>
		<path d="M-204,39.3h4v4h-4V39.3z M-206,44.3c0,0.6,0.4,1,1,1h6c0.6,0,1-0.4,1-1v-6c0-0.6-0.4-1-1-1h-6c-0.6,0-1,0.4-1,1V44.3z"/>
	</g>
	<text transform="matrix(1 0 0 1 -162.3333 121)" class="st1"><tspan x="0" y="0" class="st3 st4">LISTA</tspan><tspan x="84.2" y="0" class="st5 st4">LISTS</tspan></text>
	<text transform="matrix(1 0 0 1 207.6667 85.8333)" class="st1"><tspan x="0" y="0" class="st3 st4">LISTA</tspan><tspan x="84.2" y="0" class="st5 st4">LISTS</tspan></text>
	<text transform="matrix(1 0 0 1 177.25 -73.959)" class="st1"><tspan x="0" y="0" class="st3" style="font-size:22.0604px;">LISTA</tspan><tspan x="58.6" y="0" class="st5" style="font-size:22.0604px;">LISTS</tspan></text>
	<text transform="matrix(1 0 0 1 -162.3333 40)" class="st1"><tspan x="0" y="0" class="st3 st4">LISTA</tspan><tspan x="84.2" y="0" class="st5 st4">LISTS</tspan></text>
	<text transform="matrix(1 0 0 1 -162.3333 199.6667)" class="st1"><tspan x="0" y="0" class="st3 st4">LISTA</tspan><tspan x="84.2" y="0" class="st5 st4">LISTS</tspan></text>
	<path class="st1" d="M180.2,81.2c1,0,1.8,0.8,1.8,1.8c0,1-0.8,1.8-1.8,1.8c-1,0-1.8-0.8-1.8-1.8C178.4,82,179.2,81.2,180.2,81.2z
		 M180.2,85.8c1.6,0,2.9-1.3,2.9-2.9c0-1.6-1.3-2.9-2.9-2.9c-1.6,0-2.9,1.3-2.9,2.9C177.2,84.5,178.6,85.8,180.2,85.8z"/>
	<path class="st1" d="M187.8,81.8h12.8v2.3h-12.8V81.8z M187.2,85.2h14c0.3,0,0.6-0.3,0.6-0.6v-3.5c0-0.3-0.3-0.6-0.6-0.6h-14
		c-0.3,0-0.6,0.3-0.6,0.6v3.5C186.6,85,186.8,85.2,187.2,85.2z"/>
</g>
</svg>
